<?xml version="1.0" standalone="no"?>
<!DOCTYPE svg PUBLIC "-//W3C//DTD SVG 20010904//EN"
 "http://www.w3.org/TR/2001/REC-SVG-20010904/DTD/svg10.dtd">
<svg version="1.0" xmlns="http://www.w3.org/2000/svg"
 width="460.000000pt" height="460.000000pt" viewBox="0 0 460.000000 460.000000"
 preserveAspectRatio="xMidYMid meet">
<metadata>
Created by potrace 1.14, written by Peter Selinger 2001-2017
</metadata>
<g transform="translate(0.000000,460.000000) scale(0.100000,-0.100000)"
fill="#000000" stroke="none">
<path d="M1781 4575 c-470 -109 -874 -346 -1206 -706 -110 -120 -239 -301
-314 -442 -23 -43 -46 -86 -51 -95 -54 -95 -147 -363 -185 -528 -24 -108 -24
-114 -22 -534 l3 -425 32 -115 c18 -63 34 -122 36 -130 2 -8 11 -35 20 -60 9
-25 24 -65 32 -90 30 -88 164 -347 233 -450 335 -503 843 -853 1431 -987 41
-9 941 -11 985 -2 102 22 280 78 394 126 349 143 695 406 921 698 30 39 57 72
60 75 21 19 134 204 186 304 95 183 182 421 208 569 3 15 7 35 10 45 3 9 13
67 22 127 31 203 25 553 -11 745 -3 14 -8 39 -10 55 -3 17 -12 57 -20 90 -9
33 -18 70 -20 82 -10 41 -72 218 -104 293 -79 185 -218 413 -341 562 -66 79
-215 234 -260 271 -138 112 -183 146 -277 208 -229 149 -511 266 -774 319 -87
18 -136 20 -486 19 -373 0 -392 -1 -492 -24z"/>
</g>
</svg>
